HIERARCHY
ROOT Hips
{
	OFFSET 0.00000 0.00000 0.00000
	CHANNELS 6 Xposition Yposition Zposition Zrotation Yrotation Xrotation 
	JOINT RightUpLegDummy
	{
		OFFSET 0 0 0
		CHANNELS 3 Zrotation Yrotation Xrotation
		JOINT RightUpLeg
		{
			OFFSET -3.52197 -3.41223 0.04002
			CHANNELS 3 Zrotation Yrotation Xrotation
			JOINT RightLeg
			{
				OFFSET 0.00006 -17.42390 1.60435
				CHANNELS 3 Zrotation Yrotation Xrotation
				JOINT RightFoot
				{
					OFFSET 0.06153 -16.50078 -1.63901
					CHANNELS 3 Zrotation Yrotation Xrotation
					JOINT RightToes
					{
						OFFSET 0.00298 -1.73825 3.34613
						CHANNELS 3 Zrotation Yrotation Xrotation
						End Site
						{
							OFFSET 0.00480 -0.05416 3.85043
						}
					}
				}
			}
		}
	}
	JOINT SpineDummy
	{
		OFFSET 0 0 0
		CHANNELS 3 Zrotation Yrotation Xrotation
		JOINT Spine
		{
			OFFSET 0.00000 4.68130 0.00000
			CHANNELS 3 Zrotation Yrotation Xrotation
			JOINT Spine1
			{
				OFFSET -0.00000 10.10138 0.05002
				CHANNELS 3 Zrotation Yrotation Xrotation
				JOINT HEadDummy
				{
					OFFSET 0 0 0
					CHANNELS 3 Zrotation Yrotation Xrotation
					JOINT Head
					{
						OFFSET -0.00000 3.43865 0.00438
						CHANNELS 3 Zrotation Yrotation Xrotation
						End Site
						{
							OFFSET -0.11417 5.02924 0.98962
						}
					}
				}
				JOINT LeftShoulder1Dummy
				{
					OFFSET 0 0 0
					CHANNELS 3 Zrotation Yrotation Xrotation
					JOINT LeftShoulder1
					{
						OFFSET 3.53937 -0.14262 -0.08662
						CHANNELS 3 Zrotation Yrotation Xrotation
						JOINT LeftArm
						{
							OFFSET 4.04833 -0.00133 0.12681
							CHANNELS 3 Zrotation Yrotation Xrotation
							JOINT LeftForeArm
							{
								OFFSET 10.33880 -0.01036 -0.55515
								CHANNELS 3 Zrotation Yrotation Xrotation
								JOINT LeftHand
								{
									OFFSET 8.69677 0.07543 0.40060
									CHANNELS 3 Zrotation Yrotation Xrotation
									End Site
									{
										OFFSET 5.28377 -0.21905 0.59205
									}
								}
							}
						}
					}
				}
				JOINT RightShoulderDummy
				{
					OFFSET 0 0 0
					CHANNELS 3 Zrotation Yrotation Xrotation
					JOINT RightShoulder
					{
						OFFSET -3.53937 -0.14262 -0.08660
						CHANNELS 3 Zrotation Yrotation Xrotation
						JOINT RightArm
						{
							OFFSET -4.04833 -0.00133 0.12683
							CHANNELS 3 Zrotation Yrotation Xrotation
							JOINT RightForeArm
							{
								OFFSET -10.37987 -0.01039 -0.55511
								CHANNELS 3 Zrotation Yrotation Xrotation
								JOINT RightHand
								{
									OFFSET -8.67398 0.07538 0.40058
									CHANNELS 3 Zrotation Yrotation Xrotation
									End Site
									{
										OFFSET -5.24810 -0.21916 0.59204
									}
								}
							}
						}
					}
				}
			}
		}
	}
	JOINT LeftUpLegDummy
	{
		OFFSET 0 0 0
		CHANNELS 3 Zrotation Yrotation Xrotation
		JOINT LeftUpLeg
		{
			OFFSET 3.52197 -3.41223 0.04002
			CHANNELS 3 Zrotation Yrotation Xrotation
			JOINT LeftLeg
			{
				OFFSET -0.00012 -17.42399 1.60337
				CHANNELS 3 Zrotation Yrotation Xrotation
				JOINT LeftFoot
				{
					OFFSET -0.09972 -16.50070 -1.63802
					CHANNELS 3 Zrotation Yrotation Xrotation
					JOINT LeftToes
					{
						OFFSET -0.01575 -1.73823 3.34611
						CHANNELS 3 Zrotation Yrotation Xrotation
						End Site
						{
							OFFSET 0.03150 -0.01868 3.85031
						}
					}
				}
			}
		}
	}
}
MOTION
Frames: 11
Frame Time: 0.033333
-4.4275 40.0798 85.5958 -178.8360 2.1906 -178.9230 0.0000 0.0000 0.0000 -0.0176 -1.8377 -2.5992 -1.5826 -5.2800 4.0603 -0.2219 0.0023 -2.2373 0.0000 -0.0000 -0.0000 0.0000 0.0000 0.0000 3.1042 -0.1077 1.5862 0.4978 -0.3051 -6.9131 -0.0000 0.0000 -0.0000 -1.7469 2.9967 -9.6815 -0.0000 0.0000 -0.0000 -33.3605 -2.5088 2.3681 -41.4380 -10.7428 -16.5918 -12.2071 5.3707 37.6528 14.0903 -2.8147 -0.9737 -0.0000 0.0000 -0.0000 32.3356 4.6761 3.1361 42.8960 -4.7832 -17.6842 10.1587 7.8060 14.7585 -7.6545 2.3405 -0.4873 0.0000 0.0000 0.0000 3.5461 2.5928 -2.5341 0.5999 2.4595 4.2594 -0.6793 0.0605 -2.8295 0.0000 0.0000 -0.0000
-4.4453 40.0843 85.6009 -178.8390 2.2878 -178.9930 0.0000 0.0000 0.0000 -0.0428 -1.8468 -2.5010 -1.5714 -5.1612 3.9731 -0.2026 0.0009 -2.1763 0.0000 -0.0000 -0.0000 0.0000 0.0000 0.0000 2.9789 -0.0919 1.6434 0.7121 -0.3095 -6.9244 -0.0000 0.0000 -0.0000 -1.7977 2.8098 -9.7418 -0.0000 0.0000 -0.0000 -33.5566 -2.5094 2.3802 -41.1750 -11.4202 -16.6364 -12.1576 5.3700 37.7144 14.1883 -2.6870 -0.9659 -0.0000 0.0000 -0.0000 32.2547 4.6639 3.1248 42.9244 -4.4021 -16.9432 10.1293 8.3601 14.0176 -7.7838 2.1038 -0.4850 0.0000 0.0000 0.0000 3.5754 2.6958 -2.3990 0.4780 2.4675 4.1604 -0.6045 0.0557 -2.7984 0.0000 0.0000 -0.0000
-4.4805 40.0880 85.6067 -178.8480 2.4056 -179.0720 0.0000 0.0000 0.0000 -0.0757 -1.8209 -2.4099 -1.6256 -5.0478 3.9103 -0.1344 -0.0036 -2.1202 0.0000 -0.0000 -0.0000 0.0000 0.0000 0.0000 2.8187 -0.1144 1.6286 0.9484 -0.3557 -6.8880 -0.0000 0.0000 -0.0000 -1.7735 2.6982 -9.8343 -0.0000 0.0000 -0.0000 -33.7844 -2.5244 2.4000 -40.7723 -12.3577 -16.3800 -12.2527 5.3760 37.3787 14.3552 -2.3208 -0.9350 -0.0000 0.0000 -0.0000 32.2409 4.6683 3.1254 42.8048 -3.7148 -15.5411 10.0899 9.1974 12.7007 -7.9992 1.9418 -0.4883 0.0000 0.0000 0.0000 3.5778 2.7983 -2.2906 0.3464 2.4920 4.1455 -0.5199 0.0503 -2.8172 0.0000 0.0000 -0.0000
-4.5200 40.0863 85.6089 -178.8450 2.5191 -179.0720 0.0000 0.0000 0.0000 -0.0861 -1.7531 -2.4344 -1.7234 -4.9866 3.9171 -0.0481 -0.0093 -2.1014 0.0000 -0.0000 -0.0000 0.0000 0.0000 0.0000 2.8088 -0.1487 1.4798 0.9353 -0.3923 -6.7816 -0.0000 0.0000 -0.0000 -1.6769 2.7356 -9.9590 -0.0000 0.0000 -0.0000 -33.7006 -2.5390 2.4007 -40.6663 -13.0515 -15.9793 -12.4112 5.3840 36.9091 14.4947 -2.0473 -0.9122 -0.0000 0.0000 -0.0000 32.3164 4.6827 3.1371 42.6349 -3.0592 -14.4080 10.0297 9.7956 11.7587 -7.9752 2.1325 -0.4983 0.0000 0.0000 0.0000 3.5296 2.7979 -2.3601 0.3467 2.6005 4.3254 -0.4976 0.0488 -2.9335 0.0000 0.0000 -0.0000
-4.5554 40.0828 85.6027 -178.8110 2.7285 -179.0120 0.0000 0.0000 0.0000 -0.0746 -1.6918 -2.5129 -1.7615 -4.8337 3.9065 0.0045 -0.0127 -2.0818 0.0000 -0.0000 -0.0000 0.0000 0.0000 0.0000 2.9129 -0.1033 1.3039 0.8166 -0.3412 -6.6954 -0.0000 0.0000 -0.0000 -1.7132 2.7363 -10.0084 -0.0000 0.0000 -0.0000 -33.4235 -2.5268 2.3790 -40.9244 -13.4109 -15.7342 -12.4841 5.3881 36.6692 14.5716 -2.0008 -0.9110 -0.0000 0.0000 -0.0000 32.3419 4.6817 3.1388 42.5799 -2.5867 -14.1524 9.9664 9.9558 11.8229 -7.8676 2.3827 -0.5064 0.0000 0.0000 0.0000 3.4931 2.7681 -2.4726 0.4204 2.8293 4.5176 -0.5074 0.0495 -3.0833 0.0000 0.0000 -0.0000
-4.5868 40.0826 85.5820 -178.7590 3.0008 -178.9560 0.0000 0.0000 0.0000 -0.0691 -1.6721 -2.5383 -1.7231 -4.5781 3.8351 0.0271 -0.0143 -2.0505 0.0000 -0.0000 -0.0000 0.0000 0.0000 0.0000 3.0236 -0.0043 1.1646 0.7536 -0.2428 -6.6843 -0.0000 0.0000 -0.0000 -1.8704 2.6260 -9.9153 -0.0000 0.0000 -0.0000 -33.2792 -2.4953 2.3579 -41.2447 -13.4561 -15.6558 -12.4948 5.3898 36.5790 14.5797 -1.9957 -0.9121 -0.0000 0.0000 -0.0000 32.3462 4.6792 3.1381 42.5124 -2.2372 -14.5399 9.9950 9.6677 12.6143 -8.1284 2.3007 -0.5186 0.0000 0.0000 0.0000 3.5030 2.7934 -2.4493 0.4415 3.0688 4.5188 -0.4964 0.0488 -3.1844 0.0000 0.0000 -0.0000
-4.6176 40.0858 85.5480 -178.7330 3.1255 -178.9160 0.0000 0.0000 0.0000 -0.0980 -1.6884 -2.4955 -1.6907 -4.4319 3.7430 0.0679 -0.0169 -2.0359 0.0000 -0.0000 -0.0000 0.0000 0.0000 0.0000 3.1558 0.0113 0.9797 0.5960 -0.2182 -6.6455 -0.0000 0.0000 -0.0000 -1.8591 2.5306 -9.8340 -0.0000 0.0000 -0.0000 -33.2680 -2.4881 2.3544 -41.4534 -13.2457 -15.6526 -12.4897 5.3896 36.5934 14.4338 -2.0687 -0.9199 -0.0000 0.0000 -0.0000 32.5330 4.7159 3.1676 42.1718 -1.9041 -15.1322 10.2095 8.9161 13.5419 -8.6691 2.0000 -0.5346 0.0000 0.0000 0.0000 3.5051 2.8269 -2.3243 0.3991 3.1543 4.3487 -0.4603 0.0464 -3.2157 0.0000 0.0000 -0.0000
-4.6463 40.0890 85.5122 -178.7430 3.0149 -178.8740 0.0000 0.0000 0.0000 -0.1585 -1.7267 -2.4323 -1.6993 -4.5033 3.6620 0.1372 -0.0214 -2.0479 0.0000 -0.0000 -0.0000 0.0000 0.0000 0.0000 3.3151 -0.0821 0.7284 0.2739 -0.2854 -6.5001 -0.0000 0.0000 -0.0000 -1.6066 2.5621 -9.9282 -0.0000 0.0000 -0.0000 -33.1980 -2.5237 2.3641 -41.6719 -12.9011 -15.7866 -12.4071 5.3816 37.0219 13.9994 -2.5358 -0.9423 -0.0000 0.0000 -0.0000 32.8938 4.7882 3.2254 41.6107 -1.5974 -15.9122 10.5143 7.7295 14.5559 -8.8968 1.9107 -0.5430 0.0000 0.0000 0.0000 3.4586 2.8070 -2.2440 0.3580 3.0619 4.1842 -0.4148 0.0435 -3.2176 0.0000 0.0000 -0.0000
-4.6689 40.0903 85.4819 -178.7630 2.8368 -178.8440 0.0000 0.0000 0.0000 -0.2251 -1.7839 -2.3637 -1.6979 -4.6274 3.5930 0.1941 -0.0250 -2.0692 0.0000 -0.0000 -0.0000 0.0000 0.0000 0.0000 3.3617 -0.1503 0.5775 0.1090 -0.3390 -6.3902 -0.0000 0.0000 -0.0000 -1.4226 2.6728 -10.1144 -0.0000 0.0000 -0.0000 -33.1625 -2.5630 2.3773 -41.9543 -12.4987 -16.1049 -12.2248 5.3638 37.9575 13.3712 -3.2940 -0.9736 -0.0000 0.0000 -0.0000 33.1138 4.8361 3.2624 41.1842 -1.4009 -16.9416 10.6621 6.2970 15.9037 -8.6173 2.1122 -0.5387 0.0000 0.0000 0.0000 3.4029 2.7742 -2.2290 0.3303 2.9215 4.1294 -0.3611 0.0400 -3.2346 0.0000 0.0000 -0.0000
-4.6887 40.0914 85.4515 -178.7820 2.7281 -178.8500 0.0000 0.0000 0.0000 -0.2979 -1.8589 -2.2861 -1.6654 -4.6561 3.5715 0.2189 -0.0264 -2.1080 0.0000 -0.0000 -0.0000 0.0000 0.0000 0.0000 3.2242 -0.1203 0.6191 0.3088 -0.3268 -6.4624 -0.0000 0.0000 -0.0000 -1.5048 2.7280 -10.2428 -0.0000 0.0000 -0.0000 -33.3913 -2.5591 2.3898 -42.1495 -12.0115 -16.4919 -12.0372 5.3434 38.9839 12.9815 -3.6850 -0.9857 -0.0000 0.0000 -0.0000 33.0063 4.8193 3.2469 41.0929 -1.3380 -17.8795 10.5614 4.8684 17.3546 -8.2729 2.2619 -0.5259 0.0000 0.0000 0.0000 3.3550 2.7562 -2.1965 0.3066 2.8323 4.1394 -0.3155 0.0371 -3.2747 0.0000 0.0000 -0.0000
-4.7138 40.0923 85.4113 -178.8290 2.6051 -178.8760 0.0000 0.0000 0.0000 -0.4126 -1.9593 -2.2045 -1.6371 -4.6611 3.6214 0.2386 -0.0275 -2.1860 0.0000 -0.0000 -0.0000 0.0000 0.0000 0.0000 3.0724 -0.0733 0.6696 0.5522 -0.3021 -6.5579 -0.0000 0.0000 -0.0000 -1.6577 2.6388 -10.3701 -0.0000 0.0000 -0.0000 -33.7749 -2.5153 2.3958 -42.2008 -11.4772 -16.8954 -11.8739 5.3260 39.8347 13.1520 -3.3845 -0.9669 -0.0000 0.0000 -0.0000 32.7691 4.7659 3.2064 41.1954 -1.3643 -18.3942 10.3966 3.6012 18.4096 -8.2138 2.1543 -0.5152 0.0000 0.0000 0.0000 3.2494 2.6759 -2.1133 0.3301 2.7781 4.1155 -0.3114 0.0369 -3.3127 0.0000 0.0000 -0.0000
